{"title":"Jimmy.Kimmel.2014.10.21.Bill.Murray.FS.PDTV.XviD","uid":11261298,"size":491489280,"categoryP":"video","categoryS":"tv_shows","magnet":"?xt=urn:btih:5e410579f0e4290f4dc2c1fa8cd65531d4d1d481&amp;dn=Jimmy.Kimmel.2014.10.21.Bill.Murray.FS.PDTV.XviD&amp;tr=udp%3A%2F%2Ftracker.openbittorrent.com%3A80&amp;tr=udp%3A%2F%2Fopen.demonii.com%3A1337&amp;tr=udp%3A%2F%2Ftracker.coppersurfer.tk%3A6969&amp;tr=udp%3A%2F%2Fexodus.desync.com%3A6969","seeders":1,"leechers":0,"uploader":"Alia.69","files":1,"time":1413969750,"description":"\nJimmy.Kimmel.2014.10.21.Bill.Murray.FS.PDTV.XviD.avi\n\n\n\nVideo\nID                                       : 0\nFormat                                   : MPEG-4 Visual\nFormat profile                           : Advanced Simple@L5\nFormat settings, BVOP                    : 2\nFormat settings, QPel                    : No\nFormat settings, GMC                     : No warppoints\nFormat settings, Matrix                  : Default (H.263)\nMuxing mode                              : Packed bitstream\nCodec ID                                 : XVID\nCodec ID/Hint                            : XviD\nDuration                                 : 41mn 59s\nBit rate                                 : 1 408 Kbps\nWidth                                    : 640 pixels\nHeight                                   : 480 pixels\nDisplay aspect ratio                     : 4:3\nFrame rate                               : 29.970 fps\nColor space                              : YUV\nChroma subsampling                       : 4:2:0\nBit depth                                : 8 bits\nScan type                                : Progressive\nCompression mode                         : Lossy\nBits/(Pixel*Frame)                       : 0.153\nStream size                              : 423 MiB (90%)\nWriting library                          : XviD 1.2.1 (UTC 2008-12-04)\n\nAudio\nID                                       : 1\nFormat                                   : MPEG Audio\nFormat version                           : Version 1\nFormat profile                           : Layer 3\nMode                                     : Joint stereo\nMode extension                           : MS Stereo\nCodec ID                                 : 55\nCodec ID/Hint                            : MP3\nDuration                                 : 41mn 59s\nBit rate mode                            : Variable\nBit rate                                 : 138 Kbps\nMinimum bit rate                         : 32.0 Kbps\nChannel(s)                               : 2 channels\nSampling rate                            : 48.0 KHz\nCompression mode                         : Lossy\nStream size                              : 41.6 MiB (9%)\nAlignment                                : Aligned on interleaves\nInterleave, duration                     : 24 ms (0.72 video frame)\nInterleave, preload duration             : 518 ms\nWriting library                          : LAME3.98r\nEncoding settings                        : -m j -V 4 -q 2 -lowpass 17.5 --vbr-new -b 32","torrent":{"xt":"urn:btih:5e410579f0e4290f4dc2c1fa8cd65531d4d1d481","amp;dn":"Jimmy.Kimmel.2014.10.21.Bill.Murray.FS.PDTV.XviD","amp;tr":["udp%3A%2F%2Ftracker.openbittorrent.com%3A80","udp%3A%2F%2Fopen.demonii.com%3A1337","udp%3A%2F%2Ftracker.coppersurfer.tk%3A6969","udp%3A%2F%2Fexodus.desync.com%3A6969"],"infoHash":"5e410579f0e4290f4dc2c1fa8cd65531d4d1d481","infoHashBuffer":{"type":"Buffer","data":[94,65,5,121,240,228,41,15,77,194,193,250,140,214,85,49,212,209,212,129]},"announce":[],"urlList":[]}}